<?xml version="1.0" encoding="iso-8859-1"?><!DOCTYPE svg PUBLIC "-//W3C//DTD SVG 1.1//EN" "http://www.w3.org/Graphics/SVG/1.1/DTD/svg11.dtd"><svg xmlns="http://www.w3.org/2000/svg" width="511.63" height="511.631" viewBox="0 0 511.63 511.631"><path d="M493.356 274.088H18.274c-4.952 0-9.233 1.811-12.851 5.428C1.809 283.129 0 287.417 0 292.362v36.545c0 4.948 1.809 9.236 5.424 12.847 3.621 3.617 7.904 5.432 12.851 5.432h475.082c4.944 0 9.232-1.814 12.85-5.432 3.614-3.61 5.425-7.898 5.425-12.847v-36.545c0-4.945-1.811-9.233-5.425-12.847-3.619-3.62-7.907-5.427-12.851-5.427zm0 109.633H18.274c-4.952 0-9.233 1.81-12.851 5.427C1.809 392.762 0 397.046 0 401.994v36.546c0 4.948 1.809 9.232 5.424 12.854 3.621 3.61 7.904 5.421 12.851 5.421h475.082c4.944 0 9.232-1.811 12.85-5.421 3.614-3.621 5.425-7.905 5.425-12.854v-36.546c0-4.948-1.811-9.232-5.425-12.847-3.619-3.617-7.907-5.426-12.851-5.426zm12.85-323.48c-3.617-3.612-7.905-5.424-12.85-5.424H18.274c-4.952 0-9.233 1.812-12.851 5.424C1.809 63.858 0 68.143 0 73.091v36.547c0 4.948 1.809 9.229 5.424 12.847 3.621 3.616 7.904 5.424 12.851 5.424h475.082c4.944 0 9.232-1.809 12.85-5.424 3.614-3.617 5.425-7.898 5.425-12.847V73.091c-.002-4.948-1.812-9.23-5.426-12.85zm-12.85 104.215H18.274c-4.952 0-9.233 1.807-12.851 5.424C1.809 173.495 0 177.778 0 182.727v36.547c0 4.947 1.809 9.233 5.424 12.845 3.621 3.617 7.904 5.429 12.851 5.429h475.082c4.944 0 9.232-1.812 12.85-5.429 3.614-3.612 5.425-7.898 5.425-12.845v-36.547c0-4.952-1.811-9.231-5.425-12.847-3.619-3.617-7.907-5.424-12.851-5.424z"/></svg>